<?xml version="1.0" standalone="no"?>
<!DOCTYPE svg PUBLIC "-//W3C//DTD SVG 20010904//EN"
 "http://www.w3.org/TR/2001/REC-SVG-20010904/DTD/svg10.dtd">
<svg version="1.0" xmlns="http://www.w3.org/2000/svg"
 width="1350.000000pt" height="1080.000000pt" viewBox="0 0 1350.000000 1080.000000"
 preserveAspectRatio="xMidYMid meet">

<g transform="translate(0.000000,1080.000000) scale(0.100000,-0.100000)"
fill="#302910" stroke="none">
<path d="M6596 10696 c-16 -17 -61 -94 -101 -171 -92 -178 -128 -241 -196
-340 -30 -44 -73 -118 -96 -165 -100 -208 -143 -298 -143 -304 0 -4 -24 -57
-54 -119 -77 -161 -126 -266 -186 -397 -28 -63 -65 -143 -81 -176 -16 -34 -29
-66 -29 -72 0 -5 -7 -15 -14 -22 -8 -6 -20 -28 -27 -48 -10 -33 -74 -172 -219
-477 -26 -55 -69 -147 -95 -205 -98 -215 -142 -309 -257 -550 -91 -188 -104
-242 -84 -327 7 -34 26 -77 40 -96 28 -37 94 -87 114 -87 22 0 31 -43 16 -72
-8 -15 -14 -31 -14 -36 0 -15 -101 -196 -114 -204 -25 -17 -57 -6 -107 37 -39
33 -61 45 -85 45 -41 0 -113 -31 -139 -59 -27 -31 -135 -107 -164 -116 -20 -6
-36 6 -123 94 -56 55 -121 114 -146 131 -242 160 -551 67 -679 -206 -25 -54
-27 -69 -27 -184 -1 -110 2 -132 23 -185 26 -63 87 -161 116 -185 25 -21 37
-58 25 -80 -6 -11 -88 -78 -183 -150 -94 -71 -208 -158 -252 -191 -44 -34
-224 -171 -400 -304 -335 -254 -402 -310 -387 -319 5 -3 62 -83 125 -178 205
-306 408 -541 649 -754 163 -143 496 -388 578 -425 l37 -17 90 45 c99 49 171
65 191 40 7 -8 17 -51 24 -96 11 -84 3 -143 -28 -181 -6 -8 -21 -35 -33 -60
-12 -25 -28 -56 -36 -70 -7 -14 -60 -117 -116 -230 -56 -113 -141 -281 -189
-375 -249 -486 -333 -650 -385 -755 -31 -63 -66 -133 -77 -155 -11 -22 -42
-83 -69 -136 -27 -53 -55 -118 -63 -145 -7 -27 -32 -96 -54 -154 -22 -58 -52
-143 -66 -189 -22 -73 -23 -82 -8 -77 37 12 160 44 207 54 28 6 68 15 90 21
125 32 255 61 270 61 10 0 57 18 104 39 47 22 113 44 146 50 78 12 103 22 390
156 161 75 306 134 440 179 110 37 219 79 243 93 58 33 75 25 162 -77 114
-133 141 -160 210 -205 173 -114 383 -100 535 35 41 37 59 41 85 23 l23 -16
-5 -723 -5 -722 26 -7 c24 -7 1199 -24 1212 -18 3 1 7 319 8 705 2 694 2 703
22 720 23 19 15 21 134 -37 118 -57 283 -45 403 30 74 46 104 75 216 208 54
63 105 117 115 120 9 2 48 -7 87 -20 38 -13 92 -31 119 -39 28 -9 69 -24 93
-35 23 -10 50 -19 60 -19 9 0 48 -14 87 -30 38 -17 76 -30 84 -30 7 0 32 -9
55 -19 23 -11 66 -27 96 -36 30 -9 69 -22 85 -30 34 -15 203 -72 253 -85 18
-4 39 -13 46 -19 8 -6 40 -18 72 -27 33 -8 75 -23 94 -33 19 -10 51 -21 71
-25 20 -3 64 -18 97 -31 33 -14 82 -29 109 -35 26 -6 104 -37 173 -69 69 -33
161 -71 205 -87 44 -15 91 -35 104 -43 l24 -15 -6 38 c-3 21 -15 55 -25 75
-10 20 -25 61 -32 91 -7 30 -22 75 -33 100 -27 62 -83 227 -92 270 -6 30 -159
359 -200 430 -8 14 -36 66 -61 115 -25 50 -74 144 -108 210 -34 66 -160 314
-280 550 -120 237 -249 491 -287 565 -43 84 -69 147 -69 167 0 79 42 114 115
95 35 -10 160 -72 221 -111 18 -12 26 -10 66 15 60 38 306 230 467 365 244
205 494 487 674 759 31 47 81 119 111 161 l55 77 -67 46 c-37 25 -112 81 -168
123 -111 86 -357 273 -734 558 -135 102 -251 193 -257 202 -23 30 -14 59 42
129 133 166 157 371 66 553 -88 173 -295 278 -482 243 -112 -21 -182 -63 -303
-185 -125 -126 -138 -130 -208 -78 -85 62 -167 112 -212 127 -45 16 -46 15
-77 -10 -50 -42 -55 -40 -133 69 -87 121 -99 167 -49 186 71 27 130 97 149
178 11 50 11 66 -5 138 -10 45 -28 94 -40 109 -11 15 -21 31 -21 37 0 11 -9
32 -106 235 -35 73 -64 136 -64 140 0 4 -22 52 -49 107 -72 148 -118 247 -125
272 -4 11 -13 27 -21 33 -8 7 -15 19 -15 27 0 8 -27 71 -60 140 -33 68 -60
128 -60 131 0 4 -13 34 -30 67 -16 33 -36 76 -45 95 -8 19 -19 42 -23 50 -5 8
-21 40 -35 70 -158 336 -207 442 -207 447 0 9 -117 252 -136 283 -17 28 -29
55 -80 180 -43 105 -129 282 -162 334 -13 22 -37 70 -53 107 -32 76 -135 238
-214 340 l-51 66 -28 -31z m69 -412 c14 -15 25 -31 25 -36 0 -4 18 -45 39 -91
48 -102 96 -205 171 -367 31 -69 75 -163 98 -210 22 -47 55 -119 75 -160 19
-41 65 -140 102 -220 37 -80 83 -178 101 -217 19 -40 50 -108 70 -150 20 -43
49 -105 64 -138 15 -33 42 -90 59 -127 17 -38 44 -96 60 -130 16 -35 54 -116
85 -182 31 -65 56 -119 56 -121 0 -1 24 -54 54 -116 29 -63 63 -134 74 -159
11 -25 61 -133 111 -240 50 -107 91 -200 91 -207 0 -19 -30 -43 -55 -43 -13 0
-103 40 -201 90 -98 49 -180 88 -182 85 -3 -2 0 -10 5 -17 6 -7 103 -196 216
-420 152 -300 205 -413 199 -427 -4 -11 -196 -229 -427 -486 -231 -257 -432
-485 -447 -508 -15 -23 -40 -59 -55 -80 -54 -74 -68 -95 -85 -123 -10 -16 -23
-36 -29 -45 -9 -13 1 -33 56 -115 37 -54 87 -123 111 -152 31 -38 41 -58 36
-72 -9 -25 -507 -572 -534 -587 -37 -20 -25 -32 -382 360 -141 154 -216 245
-216 259 0 19 15 42 106 162 79 104 104 142 104 156 0 15 -11 33 -94 156 -64
95 -57 87 -730 833 -81 91 -152 176 -157 190 -11 26 -9 30 313 659 71 140 128
255 126 257 -2 3 -84 -36 -181 -85 -97 -50 -186 -90 -196 -90 -25 0 -51 26
-51 51 0 11 12 46 26 77 67 143 94 202 123 266 18 38 47 101 65 140 19 39 43
91 54 116 11 25 48 103 81 173 34 71 61 130 61 132 0 1 27 61 61 131 34 71 83
177 110 236 27 59 69 149 93 200 47 100 63 135 206 443 51 110 113 243 137
295 25 52 86 183 135 290 154 333 176 378 190 383 28 12 50 6 73 -19z m-2471
-3453 c47 -23 81 -51 130 -106 98 -108 101 -102 -119 -269 -246 -188 -279
-209 -305 -201 -11 4 -43 33 -70 66 -116 140 -117 333 -2 452 97 101 235 123
366 58z m5063 8 c58 -28 114 -85 144 -147 19 -38 23 -64 23 -137 1 -77 -3 -98
-25 -146 -30 -63 -116 -159 -142 -159 -15 0 -219 149 -409 299 -87 68 -88 81
-7 169 107 118 184 155 302 147 43 -2 86 -12 114 -26z m-4305 -165 c56 -29
150 -117 241 -226 52 -62 241 -275 421 -473 180 -198 337 -378 349 -400 32
-60 31 -175 -3 -231 -14 -23 -194 -219 -401 -435 -207 -217 -395 -416 -418
-443 -55 -64 -134 -180 -162 -240 -27 -57 -51 -69 -135 -64 -67 4 -75 8 -452
196 -106 54 -210 112 -232 130 -21 18 -71 48 -109 67 -58 29 -106 68 -251 206
-99 94 -215 212 -258 263 -177 205 -319 417 -309 459 4 15 150 133 459 369
249 190 485 370 523 400 39 29 129 98 200 153 72 54 175 133 230 175 55 43
111 83 125 90 59 32 126 33 182 4z m3474 -30 c22 -9 62 -33 89 -54 72 -54 376
-287 1050 -803 312 -239 371 -287 373 -310 3 -21 -14 -55 -62 -130 -174 -273
-464 -578 -696 -733 -110 -73 -358 -209 -443 -243 -32 -13 -86 -42 -120 -64
-116 -75 -328 -153 -373 -137 -11 5 -46 50 -77 102 -83 139 -131 193 -544 625
-208 217 -390 413 -404 434 -43 63 -49 171 -13 241 18 35 40 61 423 483 506
559 486 541 636 581 100 27 113 28 161 8z m-5240 -1431 c165 -241 366 -465
574 -637 189 -157 517 -362 608 -381 18 -4 79 -28 135 -55 56 -26 118 -51 137
-55 31 -7 117 -42 190 -78 32 -16 37 -57 16 -127 -9 -29 -19 -99 -22 -158 -9
-134 -19 -146 -102 -136 -31 3 -95 19 -142 34 -176 59 -227 85 -250 130 -20
40 -90 260 -90 284 0 21 -8 20 -125 -9 -55 -14 -129 -27 -165 -28 l-65 -2
-115 77 c-63 43 -164 117 -225 164 -138 110 -413 384 -528 529 -97 121 -222
299 -236 338 -12 32 2 53 77 109 200 153 196 151 224 137 9 -5 56 -66 104
-136z m7062 53 c148 -114 155 -122 147 -154 -3 -15 -23 -52 -43 -82 -192 -286
-432 -552 -702 -776 -143 -119 -387 -284 -419 -284 -23 0 -227 57 -252 71 -14
7 -24 -5 -56 -69 -22 -42 -50 -103 -62 -134 -13 -31 -30 -63 -39 -71 -35 -31
-350 -137 -406 -137 -30 0 -41 18 -50 85 -3 28 -18 98 -33 157 -20 85 -23 110
-14 122 7 8 65 31 129 51 200 64 329 122 570 257 95 54 192 113 215 133 23 19
98 80 167 136 237 193 489 478 639 722 28 46 60 69 85 61 11 -4 67 -43 124
-88z m-4061 -567 c150 -163 275 -308 278 -322 5 -20 -2 -35 -37 -75 -24 -27
-67 -80 -97 -116 -29 -36 -58 -66 -63 -66 -5 0 -46 -36 -91 -80 -45 -44 -89
-83 -98 -85 -28 -9 -53 8 -134 95 -43 47 -166 179 -273 293 -143 153 -194 215
-194 232 0 18 45 72 168 202 92 98 177 188 189 201 14 15 29 21 50 20 26 -3
72 -48 302 -299z m1170 257 c21 -23 105 -113 187 -200 109 -114 149 -163 149
-181 0 -16 -22 -47 -64 -93 -35 -38 -278 -297 -539 -577 -611 -653 -653 -703
-797 -943 -53 -88 -163 -302 -163 -317 0 -3 -30 -69 -66 -147 -89 -191 -115
-278 -120 -401 -6 -158 -39 -244 -127 -322 -87 -79 -208 -104 -327 -69 -77 23
-129 62 -212 161 -40 47 -100 118 -134 157 -104 120 -135 183 -150 302 -8 68
17 183 54 246 15 25 190 223 389 440 199 216 397 438 440 493 85 109 133 160
205 218 26 20 72 70 102 111 55 73 181 199 231 232 15 10 56 54 91 98 36 45
221 251 411 459 390 426 371 411 440 333z m-1909 -598 c326 -341 482 -514 482
-538 0 -27 -73 -124 -147 -195 -23 -22 -59 -66 -80 -97 -21 -31 -135 -164
-253 -294 -118 -130 -273 -300 -343 -378 -140 -153 -177 -207 -207 -305 -25
-80 -28 -264 -5 -352 12 -44 13 -64 5 -79 -6 -11 -12 -20 -14 -20 -2 0 -41
-13 -87 -29 -166 -58 -636 -223 -714 -251 -44 -16 -141 -50 -215 -75 -74 -26
-179 -62 -234 -81 -105 -37 -131 -37 -148 1 -12 27 -7 36 627 1280 67 132 159
313 204 403 49 97 92 169 106 178 22 14 30 13 104 -10 110 -35 387 -106 413
-106 18 0 20 4 14 39 -10 63 11 309 34 396 41 157 121 324 214 447 64 87 125
148 146 148 11 0 53 -36 98 -82z m2429 45 c199 -212 325 -513 349 -834 6 -80
11 -97 31 -117 21 -21 30 -23 71 -17 68 10 217 49 348 90 79 26 118 34 130 27
9 -5 82 -139 163 -298 184 -362 557 -1095 692 -1360 82 -161 101 -205 95 -227
-13 -53 -7 -55 -486 114 -120 43 -96 35 -525 184 -214 75 -405 142 -424 148
-44 16 -58 45 -43 96 7 21 12 95 12 164 0 105 -4 136 -23 194 -40 116 -23 95
-482 599 -518 569 -550 607 -543 657 2 16 77 103 217 253 328 351 341 364 363
364 11 0 36 -17 55 -37z m-743 -729 c14 -5 108 -119 182 -219 16 -22 88 -98
159 -170 190 -189 616 -658 647 -713 41 -71 62 -164 54 -245 -5 -54 -17 -88
-56 -168 -28 -54 -65 -116 -84 -137 -18 -20 -54 -66 -79 -102 -65 -89 -187
-185 -271 -213 -141 -48 -296 5 -386 129 l-34 48 3 155 c2 132 -1 164 -17 211
-27 78 -67 155 -119 227 -24 33 -64 108 -89 165 -92 212 -229 445 -304 521
-42 41 -51 63 -39 94 7 19 302 342 366 401 25 23 40 26 67 16z m-533 -617 c8
-7 31 -33 51 -58 19 -26 45 -57 57 -70 12 -13 33 -46 47 -74 13 -27 36 -61 50
-74 43 -41 132 -232 190 -409 l24 -73 0 -934 c0 -835 -2 -935 -16 -949 -13
-14 -62 -16 -384 -16 l-369 0 -15 22 c-14 20 -16 135 -16 1038 0 879 2 1023
15 1067 30 102 168 357 260 481 46 64 72 76 106 49z"/>
</g>
</svg>
